<svg width="13" height="12" viewBox="0 0 13 12" fill="none" xmlns="http://www.w3.org/2000/svg">
<path d="M1.1253 2.82287L0.34375 3.19786L1.1253 3.57285C1.73976 3.86766 2.23428 4.36465 2.52603 4.98057L3.01943 6.02218L3.51282 4.98057C3.80457 4.36465 4.29909 3.86766 4.91355 3.57285L5.6951 3.19786L4.9258 2.85951C4.20868 2.54411 3.64503 1.95839 3.35738 1.22969L3.01943 0.373535L2.52603 1.41515C2.23428 2.03107 1.73976 2.52806 1.1253 2.82287Z" fill="#B9D3CD" stroke="#B9D3CD" stroke-width="0.297297"/>
<path d="M7.3801 8.00011L6.58789 8.40022L7.3801 8.80032C7.98771 9.1072 8.47161 9.61329 8.75095 10.234L9.26357 11.3732L9.77618 10.234C10.0555 9.61329 10.5394 9.1072 11.147 8.80032L11.9392 8.40022L11.1571 8.03809C10.448 7.70984 9.89673 7.11567 9.62239 6.3841L9.26357 5.42725L8.75095 6.56639C8.47161 7.18715 7.98771 7.69324 7.3801 8.00011Z" fill="#B9D3CD" stroke="#B9D3CD" stroke-width="0.297297"/>
<path d="M8.96416 1.85938L8.93287 1.92194C8.74945 2.28879 8.44565 2.58155 8.07227 2.75127C8.44565 2.92099 8.74945 3.21374 8.93287 3.58059L8.96416 3.64316L8.99544 3.58059C9.17886 3.21374 9.48267 2.92099 9.85605 2.75127C9.45276 2.58323 9.13219 2.26266 8.96416 1.85938Z" fill="#B9D3CD" stroke="#B9D3CD" stroke-width="0.297297"/>
<path d="M6.28838 4.83301L6.25709 4.89558C6.07367 5.26242 5.76987 5.55518 5.39648 5.7249C5.76987 5.89462 6.07367 6.18738 6.25709 6.55422L6.28838 6.61679L6.31966 6.55422C6.50308 6.18738 6.80688 5.89462 7.18027 5.7249C6.77698 5.55686 6.45641 5.2363 6.28838 4.83301Z" fill="#B9D3CD" stroke="#B9D3CD" stroke-width="0.297297"/>
<path d="M3.46395 7.50879L3.43788 7.56093C3.28502 7.86663 3.03186 8.1106 2.7207 8.25203C3.03186 8.39347 3.28502 8.63743 3.43788 8.94313L3.46395 8.99528L3.49002 8.94313C3.64287 8.63743 3.89604 8.39347 4.20719 8.25203C3.87112 8.112 3.60398 7.84486 3.46395 7.50879Z" fill="#B9D3CD" stroke="#B9D3CD" stroke-width="0.297297"/>
</svg>
