<svg width="132" height="131" viewBox="0 0 132 131" fill="none" xmlns="http://www.w3.org/2000/svg">
<path d="M66.6965 125.264C99.2393 125.264 125.621 98.8829 125.621 66.34C125.621 33.7972 99.2393 7.41602 66.6965 7.41602C34.1536 7.41602 7.77246 33.7972 7.77246 66.34C7.77246 98.8829 34.1536 125.264 66.6965 125.264Z" fill="#0E141E" stroke="white" stroke-width="6" stroke-miterlimit="10"/>
<path d="M49.5748 102.23C47.3404 99.9818 45.3265 97.4632 43.6691 94.6554C42.8533 93.246 42.122 91.7634 41.5156 90.2112C40.9166 88.6554 40.4572 87.0263 40.1338 85.3461C39.8472 83.6621 39.6892 81.9305 39.7443 80.1807C39.7921 78.4382 40.0309 76.6298 40.5197 74.8945C40.9974 73.1557 41.6736 71.5156 42.3939 69.9891C43.1252 68.4626 43.908 67.0312 44.6871 65.6255C45.4588 64.2307 46.2416 62.8579 47.0207 61.5107C47.7961 60.1563 48.5568 58.8054 49.3065 57.4546C50.8206 54.7639 52.2832 52.0476 53.7127 49.3167C55.1607 46.5967 56.5351 43.8402 57.9022 41.08C59.2766 38.3271 60.5775 35.5375 61.8821 32.7517C63.1206 30.1013 66.2847 28.9518 68.9454 30.1892C70.1324 30.7383 71.018 31.6718 71.5252 32.77L71.6281 32.9896L75.156 40.637C76.31 43.1959 77.4676 45.7511 78.5884 48.3246C80.8375 53.468 83.002 58.6444 85.0747 63.8646C87.1474 69.0812 89.1282 74.3418 91.0649 79.6169L96.8823 95.4461L90.8958 94.4504C91.7815 93.5974 92.6708 92.6237 93.516 91.6316C94.3613 90.6322 95.1624 89.5852 95.9268 88.5126C97.4556 86.3638 98.83 84.1014 100.013 81.7365C102.362 77.0068 103.92 71.8781 104.409 66.5919C104.453 65.933 104.5 65.2667 104.534 64.6041C104.534 63.9415 104.57 63.2752 104.548 62.609C104.526 61.2765 104.449 59.9403 104.284 58.6078C103.968 55.9427 103.365 53.296 102.49 50.7188C101.619 48.1416 100.465 45.6449 99.1093 43.2435C97.7312 40.853 96.1253 38.5723 94.3282 36.4308C95.3682 37.3679 96.3751 38.3454 97.327 39.385C98.2751 40.4247 99.1755 41.5119 100.035 42.6358C101.73 44.9018 103.255 47.3252 104.453 49.9281C106.878 55.1081 108.293 60.8701 108.344 66.731C108.366 69.656 108.098 72.5956 107.536 75.4766C106.985 78.365 106.125 81.1838 105.081 83.933C104.541 85.2985 103.968 86.6566 103.332 87.9818C102.692 89.307 102.013 90.6139 101.278 91.8915C100.546 93.1728 99.7561 94.4211 98.9292 95.6548C98.095 96.8921 97.2314 98.0892 96.2355 99.3009C95.0154 100.784 92.8215 101 91.3331 99.7842C90.9473 99.4693 90.6496 99.0923 90.4364 98.6786L90.249 98.3015L82.6345 83.2484C80.0951 78.2332 77.5962 73.1959 75.1928 68.1221C72.7857 63.0483 70.4741 57.9342 68.2471 52.7798C67.1263 50.2063 66.0458 47.6181 64.9617 45.0263L61.7756 37.2325L71.5215 37.4704C68.5411 43.1263 65.3256 48.6578 61.8711 54.0318C60.1402 56.7151 58.3395 59.3582 56.4983 61.9647C54.6315 64.5529 52.7389 67.1117 50.872 69.5754C49.9496 70.8091 49.0603 72.0282 48.2554 73.2326C47.4396 74.4369 46.7303 75.6194 46.1754 76.8421C45.6279 78.0648 45.1942 79.3387 44.9223 80.7115L44.7385 81.7475C44.6614 82.0916 44.6614 82.4467 44.6099 82.7945C44.507 83.4974 44.5107 84.2112 44.4703 84.9287C44.4813 86.3637 44.5915 87.8207 44.8194 89.2887C45.0766 90.7494 45.4257 92.2137 45.8778 93.6707C46.8002 96.5737 48.0827 99.4364 49.5895 102.222L49.5748 102.23Z" fill="#6B8BAE"/>
<path d="M23.0205 65.3325L53.4196 63.4765C59.5605 63.0995 64.4555 58.2233 64.834 52.1062L66.6972 21.8242L68.5604 52.1062C68.9389 58.2233 73.8339 63.0995 79.9748 63.4765L110.374 65.3325L79.9748 67.1885C73.8339 67.5656 68.9389 72.4418 68.5604 78.5589L66.6972 108.841L64.834 78.5589C64.4555 72.4418 59.5605 67.5656 53.4196 67.1885L23.0205 65.3325Z" fill="white"/>
<path d="M49.5764 102.23C48.7899 100.967 47.7058 99.0048 46.8459 96.4532C46.449 95.2708 43.4172 85.815 47.6103 75.9236C48.1248 74.7082 50.5833 71.0987 55.4967 63.8869C56.206 62.8473 60.9797 55.8442 60.7115 55.6502C60.5057 55.5001 58.2345 59.9516 53.6151 61.7088C51.1823 62.6349 48.8046 62.5471 46.9745 62.2396C45.7912 63.627 38.3494 72.6435 40.231 85.1743C41.6752 94.7839 47.7242 100.579 49.5764 102.23Z" fill="#6B8BAE"/>
<path d="M94.1368 29.8919L94.5558 34.0029C94.6954 35.3647 95.7759 36.441 97.1429 36.5801L101.27 36.9974C101.81 37.0524 101.81 37.8394 101.27 37.8943L97.1429 38.3117C95.7759 38.4508 94.6954 39.527 94.5558 40.8889L94.1368 44.9999C94.0817 45.538 93.2916 45.538 93.2365 44.9999L92.8175 40.8889C92.6779 39.527 91.5974 38.4508 90.2304 38.3117L86.1034 37.8943C85.5632 37.8394 85.5632 37.0524 86.1034 36.9974L90.2304 36.5801C91.5974 36.441 92.6779 35.3647 92.8175 34.0029L93.2365 29.8919C93.2916 29.3537 94.0817 29.3537 94.1368 29.8919Z" fill="white"/>
</svg>
