<svg width="86" height="44" viewBox="0 0 86 44" fill="none" xmlns="http://www.w3.org/2000/svg">
<path d="M42.6602 0.503906C55.8133 0.50397 64.044 3.1682 69.748 7.88086C75.4643 12.6037 78.7207 19.4437 81.793 27.9854C83.361 32.3455 80.5029 37.0492 75.9082 37.8037L45.1885 42.8467C43.5138 43.1216 41.8056 43.1216 40.1309 42.8467L9.41113 37.8037C4.81649 37.0491 1.95833 32.3454 3.52637 27.9854C6.59861 19.4437 9.85508 12.6037 15.5713 7.88086C21.2754 3.16813 29.5068 0.503906 42.6602 0.503906Z" fill="#4662A3" stroke="#526D82" stroke-width="1.00719"/>
<path d="M40.6372 17.5567L35.3783 25.2904C34.4689 26.6278 35.4268 28.4375 37.044 28.4375H47.5619C49.1792 28.4375 50.137 26.6278 49.2276 25.2904L43.9687 17.5567C43.1693 16.3811 41.4366 16.3811 40.6372 17.5567Z" fill="white"/>
</svg>
