<svg width="23" height="23" viewBox="0 0 23 23" fill="none" xmlns="http://www.w3.org/2000/svg">
<path d="M11.779 5.8317L1 16.6106V22L6.38951 22L17.1685 11.2211M11.779 5.8317L15.6441 1.9666L15.6465 1.9643C16.1785 1.43225 16.445 1.16576 16.7522 1.06594C17.0228 0.978019 17.3144 0.978019 17.585 1.06594C17.892 1.16569 18.1582 1.43188 18.6894 1.96318L21.0336 4.30731C21.5672 4.84088 21.8341 5.10779 21.9341 5.41543C22.022 5.68604 22.022 5.97754 21.934 6.24814C21.8342 6.55556 21.5676 6.82207 21.0348 7.35489L21.0336 7.35603L17.1685 11.2211M11.779 5.8317L17.1685 11.2211" stroke="white" stroke-width="2" stroke-linecap="round" stroke-linejoin="round"/>
</svg>
