<svg width="32" height="32" viewBox="0 0 32 32" fill="none" xmlns="http://www.w3.org/2000/svg">
<path d="M5.83854 20.2671C4.62596 22.3674 4.01985 23.4179 4.11042 24.2796C4.18942 25.0312 4.58389 25.7141 5.19531 26.1583C5.89605 26.6674 7.10787 26.6674 9.53138 26.6674H22.4686C24.8921 26.6674 26.1038 26.6674 26.8045 26.1583C27.4159 25.7141 27.8106 25.0312 27.8896 24.2796C27.9801 23.4179 27.3742 22.3674 26.1616 20.2671L19.6953 9.06713C18.4827 6.96689 17.8762 5.91695 17.0846 5.56453C16.3942 5.25714 15.6053 5.25714 14.9149 5.56453C14.1237 5.9168 13.5175 6.96675 12.306 9.06525L5.83854 20.2671Z" fill="#FF1649" fill-opacity="0.8"/>
<path d="M16 12.0007V17.3341M5.83854 20.2671C4.62596 22.3674 4.01985 23.4179 4.11042 24.2796C4.18942 25.0312 4.58389 25.7141 5.19531 26.1583C5.89605 26.6674 7.10787 26.6674 9.53138 26.6674H22.4686C24.8921 26.6674 26.1038 26.6674 26.8045 26.1583C27.4159 25.7141 27.8106 25.0312 27.8896 24.2796C27.9801 23.4179 27.3742 22.3674 26.1616 20.2671L19.6953 9.06713C18.4827 6.96689 17.8762 5.91695 17.0846 5.56453C16.3942 5.25714 15.6053 5.25714 14.9149 5.56453C14.1237 5.9168 13.5175 6.96675 12.306 9.06525L5.83854 20.2671ZM16.0677 21.3341V21.4674L15.9336 21.4677V21.3341H16.0677Z" stroke="white" stroke-width="2" stroke-linecap="round" stroke-linejoin="round"/>
</svg>
