<svg width="33" height="33" viewBox="0 0 33 33" fill="none" xmlns="http://www.w3.org/2000/svg">
<path d="M1.5521 14.3027L15.9896 22.5527C16.1454 22.6418 16.3219 22.6887 16.5014 22.6887C16.6809 22.6887 16.8573 22.6418 17.0131 22.5527L31.4506 14.3027C31.6087 14.2126 31.7401 14.0823 31.8316 13.9249C31.923 13.7676 31.9711 13.5888 31.9711 13.4068C31.9711 13.2249 31.923 13.0461 31.8316 12.8888C31.7401 12.7314 31.6087 12.6011 31.4506 12.5109L17.0131 4.26094C16.8573 4.17186 16.6809 4.125 16.5014 4.125C16.3219 4.125 16.1454 4.17186 15.9896 4.26094L1.5521 12.5109C1.39401 12.6011 1.26258 12.7314 1.17116 12.8888C1.07974 13.0461 1.03158 13.2249 1.03158 13.4068C1.03158 13.5888 1.07974 13.7676 1.17116 13.9249C1.26258 14.0823 1.39401 14.2126 1.5521 14.3027ZM16.5052 6.33762L28.8635 13.4004L16.5052 20.4632L4.14699 13.4004L16.5052 6.33762ZM31.8373 18.041C31.9064 18.1588 31.9515 18.2891 31.9698 18.4244C31.9882 18.5597 31.9794 18.6973 31.9442 18.8292C31.9089 18.9611 31.8478 19.0847 31.7644 19.1928C31.681 19.3009 31.577 19.3914 31.4584 19.459L17.0209 27.709C16.865 27.7981 16.6886 27.8449 16.5091 27.8449C16.3296 27.8449 16.1532 27.7981 15.9973 27.709L1.5521 19.459C1.43403 19.3913 1.33045 19.301 1.24727 19.1932C1.1641 19.0855 1.10296 18.9624 1.06735 18.831C1.03174 18.6997 1.02235 18.5626 1.03973 18.4276C1.0571 18.2926 1.10089 18.1623 1.16861 18.0442C1.23632 17.9262 1.32663 17.8226 1.43437 17.7394C1.54211 17.6562 1.66518 17.5951 1.79656 17.5595C2.06187 17.4876 2.34489 17.524 2.58335 17.6607L16.5052 25.6194L30.4271 17.6607C30.5446 17.5929 30.6744 17.5489 30.8089 17.5313C30.9434 17.5137 31.0801 17.5229 31.2111 17.5582C31.3422 17.5935 31.4649 17.6543 31.5724 17.7372C31.6798 17.8201 31.7699 17.9233 31.8373 18.041Z" fill="white"/>
</svg>
