<svg width="18" height="19" viewBox="0 0 18 19" fill="none" xmlns="http://www.w3.org/2000/svg">
<path d="M16.5389 4.20005H12.8519L12.1803 2.05202C11.7981 0.82501 10.7246 0 9.51346 0H7.91729C6.70611 0 5.63544 0.82501 5.25044 2.05202L4.57882 4.20005H0.891886C0.43383 4.20005 0.0460276 4.55705 0.00387517 5.01006C-0.0186061 5.26806 0.0572683 5.51407 0.217447 5.70307C0.377627 5.88907 0.605249 5.99707 0.841303 5.99707H1.91478L3.04447 16.2122C3.19341 17.5712 4.27532 18.5972 5.55675 18.5972H11.8628C13.1442 18.5972 14.2261 17.5712 14.375 16.2122L15.5075 5.99707H16.5782C16.8143 5.99707 17.0419 5.88907 17.2021 5.70307C17.365 5.51407 17.4409 5.26806 17.4156 5.01006C17.3763 4.55405 16.9857 4.20005 16.5276 4.20005H16.5389ZM6.85505 2.61903C7.00679 2.12703 7.43675 1.80002 7.9201 1.80002H9.51627C10.0024 1.80002 10.4296 2.13003 10.5813 2.61903L11.0731 4.20005H6.36046L6.85505 2.61903ZM12.7086 16.0052C12.658 16.4582 12.2983 16.8002 11.8712 16.8002H5.56518C5.13804 16.8002 4.77834 16.4582 4.72775 16.0052L3.62617 6.00007H13.813L12.7114 16.0052H12.7086Z" fill="#6B8BAE"/>
</svg>
